M48
METRIC,LZ,000.000
;FILE_FORMAT=3:3
;TYPE=PLATED
;Layer: PTH_Through
;EasyEDA v6.5.5, 2022-07-05 01:29:27
;53968c1b96fc4b8a88d45afed03194a1,2d51f53f3cf64b0da7006fab460d3095,10
;Gerber Generator version 0.2
;Holesize 1 = 0.305 mm
T01C0.305
;Holesize 2 = 1.143 mm
T02C1.143
;Holesize 3 = 1.200 mm
T03C1.200
;Holesize 4 = 1.400 mm
T04C1.400
%
G05
G90
T01
X022098Y044351
X027589Y040534
X023589Y040534
X009398Y036083
X009398Y035217
X009398Y031459
X009398Y030593
X017590Y025431
X013590Y040534
X014986Y027522
X019685Y030951
X015188Y029300
X017347Y031459
X020828Y022136
X025527Y023458
X025781Y029681
X020828Y034634
X010795Y040767
X009398Y040767
X011812Y057150
X009398Y052630
X013716Y050165
X018668Y054860
X014097Y057150
X014097Y054991
X009525Y059182
X011811Y059182
X014097Y059182
X011684Y054991
X009525Y054991
X009525Y057150
X016002Y049149
T02
X032639Y047498
X032639Y058928
X032639Y055118
X032639Y051308
T03
X026035Y019939
X015748Y046736
X015875Y019939
X010668Y046736
T04
X032639Y022733
X032639Y018923
M30
