G04 Layer: TopSolderMaskLayer*
G04 EasyEDA v6.5.5, 2022-07-05 01:29:27*
G04 53968c1b96fc4b8a88d45afed03194a1,2d51f53f3cf64b0da7006fab460d3095,10*
G04 Gerber Generator version 0.2*
G04 Scale: 100 percent, Rotated: No, Reflected: No *
G04 Dimensions in millimeters *
G04 leading zeros omitted , absolute positions ,4 integer and 5 decimal *
%FSLAX45Y45*%
%MOMM*%

%ADD35C,1.8796*%
%ADD36C,2.3016*%
%ADD46C,2.2032*%

%LPD*%
G36*
X1075499Y4964937D02*
G01*
X1073975Y4965174D01*
X1072451Y4965936D01*
X1071435Y4966952D01*
X1070673Y4968476D01*
X1070419Y4970000D01*
X1070355Y4970018D01*
X1070355Y5110987D01*
X1070419Y5111000D01*
X1070673Y5112524D01*
X1071435Y5114048D01*
X1072451Y5115064D01*
X1073975Y5115826D01*
X1075499Y5116068D01*
X1210500Y5116068D01*
X1212024Y5115826D01*
X1213548Y5115064D01*
X1214564Y5114048D01*
X1215326Y5112524D01*
X1215580Y5111000D01*
X1215644Y5110987D01*
X1215644Y4970018D01*
X1215580Y4970000D01*
X1215326Y4968476D01*
X1214564Y4966952D01*
X1213548Y4965936D01*
X1212024Y4965174D01*
X1210500Y4964937D01*
G37*
G36*
X1075499Y5170931D02*
G01*
X1073975Y5171173D01*
X1072451Y5171935D01*
X1071435Y5172951D01*
X1070673Y5174475D01*
X1070419Y5175999D01*
X1070355Y5176012D01*
X1070355Y5316981D01*
X1070419Y5316999D01*
X1070673Y5318523D01*
X1071435Y5320047D01*
X1072451Y5321063D01*
X1073975Y5321825D01*
X1075499Y5322062D01*
X1210500Y5322062D01*
X1212024Y5321825D01*
X1213548Y5321063D01*
X1214564Y5320047D01*
X1215326Y5318523D01*
X1215580Y5316999D01*
X1215644Y5316981D01*
X1215644Y5176012D01*
X1215580Y5175999D01*
X1215326Y5174475D01*
X1214564Y5172951D01*
X1213548Y5171935D01*
X1212024Y5171173D01*
X1210500Y5170931D01*
G37*
G36*
X1621701Y5153619D02*
G01*
X1620177Y5153873D01*
X1618653Y5154635D01*
X1617637Y5155651D01*
X1616875Y5157175D01*
X1616621Y5158699D01*
X1616710Y5158739D01*
X1616710Y5331460D01*
X1616621Y5331500D01*
X1616875Y5333024D01*
X1617637Y5334548D01*
X1618653Y5335564D01*
X1620177Y5336326D01*
X1621701Y5336580D01*
X1621789Y5336539D01*
X1770126Y5336539D01*
X1770199Y5336580D01*
X1771723Y5336326D01*
X1773247Y5335564D01*
X1774263Y5334548D01*
X1775025Y5333024D01*
X1775279Y5331500D01*
X1775205Y5331460D01*
X1775205Y5158739D01*
X1775279Y5158699D01*
X1775025Y5157175D01*
X1774263Y5155651D01*
X1773247Y5154635D01*
X1771723Y5153873D01*
X1770199Y5153619D01*
X1770126Y5153660D01*
X1621789Y5153660D01*
G37*
G36*
X1303200Y5153619D02*
G01*
X1301676Y5153873D01*
X1300152Y5154635D01*
X1299136Y5155651D01*
X1298374Y5157175D01*
X1298120Y5158699D01*
X1298194Y5158739D01*
X1298194Y5331460D01*
X1298120Y5331500D01*
X1298374Y5333024D01*
X1299136Y5334548D01*
X1300152Y5335564D01*
X1301676Y5336326D01*
X1303200Y5336580D01*
X1303273Y5336539D01*
X1451610Y5336539D01*
X1451698Y5336580D01*
X1453222Y5336326D01*
X1454746Y5335564D01*
X1455762Y5334548D01*
X1456524Y5333024D01*
X1456778Y5331500D01*
X1456689Y5331460D01*
X1456689Y5158739D01*
X1456778Y5158699D01*
X1456524Y5157175D01*
X1455762Y5155651D01*
X1454746Y5154635D01*
X1453222Y5153873D01*
X1451698Y5153619D01*
X1451610Y5153660D01*
X1303273Y5153660D01*
G37*
G36*
X912799Y3926809D02*
G01*
X911275Y3927063D01*
X909751Y3927825D01*
X908735Y3928841D01*
X907973Y3930365D01*
X907719Y3931889D01*
X907795Y3931920D01*
X907795Y4010913D01*
X907719Y4010898D01*
X907973Y4012422D01*
X908735Y4013946D01*
X909751Y4014962D01*
X911275Y4015724D01*
X912799Y4015978D01*
X912876Y4015994D01*
X966723Y4015994D01*
X966800Y4015978D01*
X968324Y4015724D01*
X969848Y4014962D01*
X970864Y4013946D01*
X971626Y4012422D01*
X971880Y4010898D01*
X971804Y4010913D01*
X971804Y3931920D01*
X971880Y3931889D01*
X971626Y3930365D01*
X970864Y3928841D01*
X969848Y3927825D01*
X968324Y3927063D01*
X966800Y3926809D01*
X966723Y3926839D01*
X912876Y3926839D01*
G37*
G36*
X912876Y4035805D02*
G01*
X912799Y4035821D01*
X911275Y4036075D01*
X909751Y4036837D01*
X908735Y4037853D01*
X907973Y4039377D01*
X907719Y4040901D01*
X907795Y4040886D01*
X907795Y4119879D01*
X907719Y4119910D01*
X907973Y4121434D01*
X908735Y4122958D01*
X909751Y4123974D01*
X911275Y4124736D01*
X912799Y4124990D01*
X912876Y4124960D01*
X966723Y4124960D01*
X966800Y4124990D01*
X968324Y4124736D01*
X969848Y4123974D01*
X970864Y4122958D01*
X971626Y4121434D01*
X971880Y4119910D01*
X971804Y4119879D01*
X971804Y4040886D01*
X971880Y4040901D01*
X971626Y4039377D01*
X970864Y4037853D01*
X969848Y4036837D01*
X968324Y4036075D01*
X966800Y4035821D01*
X966723Y4035805D01*
G37*
G36*
X1052499Y3926809D02*
G01*
X1050975Y3927063D01*
X1049451Y3927825D01*
X1048435Y3928841D01*
X1047673Y3930365D01*
X1047419Y3931889D01*
X1047495Y3931920D01*
X1047495Y4010913D01*
X1047419Y4010898D01*
X1047673Y4012422D01*
X1048435Y4013946D01*
X1049451Y4014962D01*
X1050975Y4015724D01*
X1052499Y4015978D01*
X1052576Y4015994D01*
X1106423Y4015994D01*
X1106500Y4015978D01*
X1108024Y4015724D01*
X1109548Y4014962D01*
X1110564Y4013946D01*
X1111326Y4012422D01*
X1111580Y4010898D01*
X1111504Y4010913D01*
X1111504Y3931920D01*
X1111580Y3931889D01*
X1111326Y3930365D01*
X1110564Y3928841D01*
X1109548Y3927825D01*
X1108024Y3927063D01*
X1106500Y3926809D01*
X1106423Y3926839D01*
X1052576Y3926839D01*
G37*
G36*
X1052576Y4035805D02*
G01*
X1052499Y4035821D01*
X1050975Y4036075D01*
X1049451Y4036837D01*
X1048435Y4037853D01*
X1047673Y4039377D01*
X1047419Y4040901D01*
X1047495Y4040886D01*
X1047495Y4119879D01*
X1047419Y4119910D01*
X1047673Y4121434D01*
X1048435Y4122958D01*
X1049451Y4123974D01*
X1050975Y4124736D01*
X1052499Y4124990D01*
X1052576Y4124960D01*
X1106423Y4124960D01*
X1106500Y4124990D01*
X1108024Y4124736D01*
X1109548Y4123974D01*
X1110564Y4122958D01*
X1111326Y4121434D01*
X1111580Y4119910D01*
X1111504Y4119879D01*
X1111504Y4040886D01*
X1111580Y4040901D01*
X1111326Y4039377D01*
X1110564Y4037853D01*
X1109548Y4036837D01*
X1108024Y4036075D01*
X1106500Y4035821D01*
X1106423Y4035805D01*
G37*
D35*
G01*
X3263900Y4749800D03*
G01*
X3263900Y5892800D03*
G01*
X3263900Y5511800D03*
G01*
X3263900Y5130800D03*
D36*
G01*
X3263900Y2273300D03*
G01*
X3263900Y1892300D03*
G36*
X1755658Y5427370D02*
G01*
X1754134Y5427624D01*
X1752610Y5428386D01*
X1751594Y5429402D01*
X1750832Y5430926D01*
X1750578Y5432450D01*
X1750568Y5432552D01*
X1750568Y5539486D01*
X1750578Y5539549D01*
X1750832Y5541073D01*
X1751594Y5542597D01*
X1752610Y5543613D01*
X1754134Y5544375D01*
X1755658Y5544629D01*
X1755647Y5544565D01*
X1977897Y5544565D01*
X1977908Y5544629D01*
X1979432Y5544375D01*
X1980956Y5543613D01*
X1981972Y5542597D01*
X1982734Y5541073D01*
X1982988Y5539549D01*
X1982977Y5539486D01*
X1982977Y5432552D01*
X1982988Y5432450D01*
X1982734Y5430926D01*
X1981972Y5429402D01*
X1980956Y5428386D01*
X1979432Y5427624D01*
X1977908Y5427370D01*
X1977897Y5427471D01*
X1755647Y5427471D01*
G37*
G36*
X1755658Y5885370D02*
G01*
X1754134Y5885624D01*
X1752610Y5886386D01*
X1751594Y5887402D01*
X1750832Y5888926D01*
X1750578Y5890450D01*
X1750568Y5890513D01*
X1750568Y5997447D01*
X1750578Y5997549D01*
X1750832Y5999073D01*
X1751594Y6000597D01*
X1752610Y6001613D01*
X1754134Y6002375D01*
X1755658Y6002629D01*
X1755647Y6002528D01*
X1977897Y6002528D01*
X1977908Y6002629D01*
X1979432Y6002375D01*
X1980956Y6001613D01*
X1981972Y6000597D01*
X1982734Y5999073D01*
X1982988Y5997549D01*
X1982977Y5997447D01*
X1982977Y5890513D01*
X1982988Y5890450D01*
X1982734Y5888926D01*
X1981972Y5887402D01*
X1980956Y5886386D01*
X1979432Y5885624D01*
X1977908Y5885370D01*
X1977897Y5885434D01*
X1755647Y5885434D01*
G37*
G36*
X884936Y5436870D02*
G01*
X885007Y5436920D01*
X883483Y5437174D01*
X881959Y5437936D01*
X880943Y5438952D01*
X880181Y5440476D01*
X879927Y5442000D01*
X879855Y5441950D01*
X879855Y5988050D01*
X879927Y5987999D01*
X880181Y5989523D01*
X880943Y5991047D01*
X881959Y5992063D01*
X883483Y5992825D01*
X885007Y5993079D01*
X884936Y5993129D01*
X1477518Y5993129D01*
X1477457Y5993079D01*
X1478981Y5992825D01*
X1480505Y5992063D01*
X1481521Y5991047D01*
X1482283Y5989523D01*
X1482537Y5987999D01*
X1482597Y5988050D01*
X1482597Y5441950D01*
X1482537Y5442000D01*
X1482283Y5440476D01*
X1481521Y5438952D01*
X1480505Y5437936D01*
X1478981Y5437174D01*
X1477457Y5436920D01*
X1477518Y5436870D01*
G37*
G36*
X1548546Y4828270D02*
G01*
X1547022Y4828524D01*
X1545498Y4829286D01*
X1544482Y4830302D01*
X1543720Y4831826D01*
X1543466Y4833350D01*
X1543557Y4833365D01*
X1543557Y4971034D01*
X1543466Y4971049D01*
X1543720Y4972573D01*
X1544482Y4974097D01*
X1545498Y4975113D01*
X1547022Y4975875D01*
X1548546Y4976129D01*
X1548637Y4976113D01*
X1661800Y4976113D01*
X1663324Y4975875D01*
X1664848Y4975113D01*
X1665864Y4974097D01*
X1666626Y4972573D01*
X1666880Y4971049D01*
X1667002Y4971034D01*
X1667002Y4833365D01*
X1666880Y4833350D01*
X1666626Y4831826D01*
X1665864Y4830302D01*
X1664848Y4829286D01*
X1663324Y4828524D01*
X1661800Y4828286D01*
X1548637Y4828286D01*
G37*
G36*
X1855053Y4828270D02*
G01*
X1854962Y4828286D01*
X1741799Y4828286D01*
X1740275Y4828524D01*
X1738751Y4829286D01*
X1737735Y4830302D01*
X1736973Y4831826D01*
X1736719Y4833350D01*
X1736597Y4833365D01*
X1736597Y4971034D01*
X1736719Y4971049D01*
X1736973Y4972573D01*
X1737735Y4974097D01*
X1738751Y4975113D01*
X1740275Y4975875D01*
X1741799Y4976113D01*
X1854962Y4976113D01*
X1855053Y4976129D01*
X1856577Y4975875D01*
X1858101Y4975113D01*
X1859117Y4974097D01*
X1859879Y4972573D01*
X1860133Y4971049D01*
X1860042Y4971034D01*
X1860042Y4833365D01*
X1860133Y4833350D01*
X1859879Y4831826D01*
X1859117Y4830302D01*
X1858101Y4829286D01*
X1856577Y4828524D01*
G37*
G36*
X1899650Y5023266D02*
G01*
X1898126Y5023520D01*
X1896602Y5024282D01*
X1895586Y5025298D01*
X1894824Y5026822D01*
X1894570Y5028346D01*
X1894586Y5028437D01*
X1894586Y5141721D01*
X1894824Y5143124D01*
X1895586Y5144648D01*
X1896602Y5145664D01*
X1898126Y5146426D01*
X1899650Y5146680D01*
X1899665Y5146802D01*
X2037334Y5146802D01*
X2037349Y5146680D01*
X2038873Y5146426D01*
X2040397Y5145664D01*
X2041413Y5144648D01*
X2042175Y5143124D01*
X2042413Y5141721D01*
X2042413Y5028437D01*
X2042429Y5028346D01*
X2042175Y5026822D01*
X2041413Y5025298D01*
X2040397Y5024282D01*
X2038873Y5023520D01*
X2037349Y5023266D01*
X2037334Y5023357D01*
X1899665Y5023357D01*
G37*
G36*
X1899665Y5216397D02*
G01*
X1899650Y5216519D01*
X1898126Y5216773D01*
X1896602Y5217535D01*
X1895586Y5218551D01*
X1894824Y5220075D01*
X1894570Y5221599D01*
X1894586Y5221478D01*
X1894586Y5334762D01*
X1894570Y5334853D01*
X1894824Y5336377D01*
X1895586Y5337901D01*
X1896602Y5338917D01*
X1898126Y5339679D01*
X1899650Y5339933D01*
X1899665Y5339842D01*
X2037334Y5339842D01*
X2037349Y5339933D01*
X2038873Y5339679D01*
X2040397Y5338917D01*
X2041413Y5337901D01*
X2042175Y5336377D01*
X2042429Y5334853D01*
X2042413Y5334762D01*
X2042413Y5221478D01*
X2042429Y5221599D01*
X2042175Y5220075D01*
X2041413Y5218551D01*
X2040397Y5217535D01*
X2038873Y5216773D01*
X2037349Y5216519D01*
X2037334Y5216397D01*
G37*
G36*
X896599Y5211521D02*
G01*
X895075Y5211775D01*
X893551Y5212537D01*
X892535Y5213553D01*
X891773Y5215077D01*
X891519Y5216601D01*
X891539Y5216652D01*
X891539Y5297170D01*
X891519Y5297248D01*
X891773Y5298772D01*
X892535Y5300296D01*
X893551Y5301312D01*
X895075Y5302074D01*
X896599Y5302328D01*
X896620Y5302250D01*
X982979Y5302250D01*
X983000Y5302328D01*
X984524Y5302074D01*
X986048Y5301312D01*
X987064Y5300296D01*
X987826Y5298772D01*
X988080Y5297248D01*
X988060Y5297170D01*
X988060Y5216652D01*
X988080Y5216601D01*
X987826Y5215077D01*
X987064Y5213553D01*
X986048Y5212537D01*
X984524Y5211775D01*
X983000Y5211521D01*
X982979Y5211571D01*
X896620Y5211571D01*
G37*
G36*
X896599Y5060871D02*
G01*
X895075Y5061125D01*
X893551Y5061887D01*
X892535Y5062903D01*
X891773Y5064427D01*
X891519Y5065951D01*
X891539Y5066029D01*
X891539Y5146547D01*
X891519Y5146598D01*
X891773Y5148122D01*
X892535Y5149646D01*
X893551Y5150662D01*
X895075Y5151424D01*
X896599Y5151678D01*
X896620Y5151628D01*
X982979Y5151628D01*
X983000Y5151678D01*
X984524Y5151424D01*
X986048Y5150662D01*
X987064Y5149646D01*
X987826Y5148122D01*
X988080Y5146598D01*
X988060Y5146547D01*
X988060Y5066029D01*
X988080Y5065951D01*
X987826Y5064427D01*
X987064Y5062903D01*
X986048Y5061887D01*
X984524Y5061125D01*
X983000Y5060871D01*
X982979Y5060950D01*
X896620Y5060950D01*
G37*
G36*
X1916176Y2183892D02*
G01*
X1916099Y2183955D01*
X1914575Y2184209D01*
X1913051Y2184971D01*
X1912035Y2185987D01*
X1911273Y2187511D01*
X1911019Y2189035D01*
X1911095Y2188971D01*
X1911095Y2245613D01*
X1911019Y2245598D01*
X1911273Y2247122D01*
X1912035Y2248646D01*
X1913051Y2249662D01*
X1914575Y2250424D01*
X1916099Y2250678D01*
X1916176Y2250694D01*
X1970024Y2250694D01*
X1970100Y2250678D01*
X1971624Y2250424D01*
X1973148Y2249662D01*
X1974164Y2248646D01*
X1974926Y2247122D01*
X1975180Y2245598D01*
X1975104Y2245613D01*
X1975104Y2188971D01*
X1975180Y2189035D01*
X1974926Y2187511D01*
X1974164Y2185987D01*
X1973148Y2184971D01*
X1971624Y2184209D01*
X1970100Y2183955D01*
X1970024Y2183892D01*
G37*
G36*
X1916176Y2270505D02*
G01*
X1916099Y2270521D01*
X1914575Y2270775D01*
X1913051Y2271537D01*
X1912035Y2272553D01*
X1911273Y2274077D01*
X1911019Y2275601D01*
X1911095Y2275586D01*
X1911095Y2332228D01*
X1911019Y2332164D01*
X1911273Y2333688D01*
X1912035Y2335212D01*
X1913051Y2336228D01*
X1914575Y2336990D01*
X1916099Y2337244D01*
X1916176Y2337307D01*
X1970024Y2337307D01*
X1970100Y2337244D01*
X1971624Y2336990D01*
X1973148Y2336228D01*
X1974164Y2335212D01*
X1974926Y2333688D01*
X1975180Y2332164D01*
X1975104Y2332228D01*
X1975104Y2275586D01*
X1975180Y2275601D01*
X1974926Y2274077D01*
X1974164Y2272553D01*
X1973148Y2271537D01*
X1971624Y2270775D01*
X1970100Y2270521D01*
X1970024Y2270505D01*
G37*
G36*
X912876Y3578605D02*
G01*
X912799Y3578621D01*
X911275Y3578875D01*
X909751Y3579637D01*
X908735Y3580653D01*
X907973Y3582177D01*
X907719Y3583701D01*
X907795Y3583686D01*
X907795Y3640328D01*
X907719Y3640264D01*
X907973Y3641788D01*
X908735Y3643312D01*
X909751Y3644328D01*
X911275Y3645090D01*
X912799Y3645344D01*
X912876Y3645407D01*
X966723Y3645407D01*
X966800Y3645344D01*
X968324Y3645090D01*
X969848Y3644328D01*
X970864Y3643312D01*
X971626Y3641788D01*
X971880Y3640264D01*
X971804Y3640328D01*
X971804Y3583686D01*
X971880Y3583701D01*
X971626Y3582177D01*
X970864Y3580653D01*
X969848Y3579637D01*
X968324Y3578875D01*
X966800Y3578621D01*
X966723Y3578605D01*
G37*
G36*
X912876Y3491992D02*
G01*
X912799Y3492055D01*
X911275Y3492309D01*
X909751Y3493071D01*
X908735Y3494087D01*
X907973Y3495611D01*
X907719Y3497135D01*
X907795Y3497071D01*
X907795Y3553713D01*
X907719Y3553698D01*
X907973Y3555222D01*
X908735Y3556746D01*
X909751Y3557762D01*
X911275Y3558524D01*
X912799Y3558778D01*
X912876Y3558794D01*
X966723Y3558794D01*
X966800Y3558778D01*
X968324Y3558524D01*
X969848Y3557762D01*
X970864Y3556746D01*
X971626Y3555222D01*
X971880Y3553698D01*
X971804Y3553713D01*
X971804Y3497071D01*
X971880Y3497135D01*
X971626Y3495611D01*
X970864Y3494087D01*
X969848Y3493071D01*
X968324Y3492309D01*
X966800Y3492055D01*
X966723Y3491992D01*
G37*
G36*
X912876Y3108705D02*
G01*
X912799Y3108721D01*
X911275Y3108975D01*
X909751Y3109737D01*
X908735Y3110753D01*
X907973Y3112277D01*
X907719Y3113801D01*
X907795Y3113786D01*
X907795Y3170428D01*
X907719Y3170364D01*
X907973Y3171888D01*
X908735Y3173412D01*
X909751Y3174428D01*
X911275Y3175190D01*
X912799Y3175444D01*
X912876Y3175507D01*
X966723Y3175507D01*
X966800Y3175444D01*
X968324Y3175190D01*
X969848Y3174428D01*
X970864Y3173412D01*
X971626Y3171888D01*
X971880Y3170364D01*
X971804Y3170428D01*
X971804Y3113786D01*
X971880Y3113801D01*
X971626Y3112277D01*
X970864Y3110753D01*
X969848Y3109737D01*
X968324Y3108975D01*
X966800Y3108721D01*
X966723Y3108705D01*
G37*
G36*
X912876Y3022092D02*
G01*
X912799Y3022155D01*
X911275Y3022409D01*
X909751Y3023171D01*
X908735Y3024187D01*
X907973Y3025711D01*
X907719Y3027235D01*
X907795Y3027171D01*
X907795Y3083813D01*
X907719Y3083798D01*
X907973Y3085322D01*
X908735Y3086846D01*
X909751Y3087862D01*
X911275Y3088624D01*
X912799Y3088878D01*
X912876Y3088894D01*
X966723Y3088894D01*
X966800Y3088878D01*
X968324Y3088624D01*
X969848Y3087862D01*
X970864Y3086846D01*
X971626Y3085322D01*
X971880Y3083798D01*
X971804Y3083813D01*
X971804Y3027171D01*
X971880Y3027235D01*
X971626Y3025711D01*
X970864Y3024187D01*
X969848Y3023171D01*
X968324Y3022409D01*
X966800Y3022155D01*
X966723Y3022092D01*
G37*
G36*
X2055875Y2183892D02*
G01*
X2055799Y2183955D01*
X2054275Y2184209D01*
X2052751Y2184971D01*
X2051735Y2185987D01*
X2050973Y2187511D01*
X2050719Y2189035D01*
X2050795Y2188971D01*
X2050795Y2245613D01*
X2050719Y2245598D01*
X2050973Y2247122D01*
X2051735Y2248646D01*
X2052751Y2249662D01*
X2054275Y2250424D01*
X2055799Y2250678D01*
X2055875Y2250694D01*
X2109724Y2250694D01*
X2109800Y2250678D01*
X2111324Y2250424D01*
X2112848Y2249662D01*
X2113864Y2248646D01*
X2114626Y2247122D01*
X2114880Y2245598D01*
X2114804Y2245613D01*
X2114804Y2188971D01*
X2114880Y2189035D01*
X2114626Y2187511D01*
X2113864Y2185987D01*
X2112848Y2184971D01*
X2111324Y2184209D01*
X2109800Y2183955D01*
X2109724Y2183892D01*
G37*
G36*
X2055875Y2270505D02*
G01*
X2055799Y2270521D01*
X2054275Y2270775D01*
X2052751Y2271537D01*
X2051735Y2272553D01*
X2050973Y2274077D01*
X2050719Y2275601D01*
X2050795Y2275586D01*
X2050795Y2332228D01*
X2050719Y2332164D01*
X2050973Y2333688D01*
X2051735Y2335212D01*
X2052751Y2336228D01*
X2054275Y2336990D01*
X2055799Y2337244D01*
X2055875Y2337307D01*
X2109724Y2337307D01*
X2109800Y2337244D01*
X2111324Y2336990D01*
X2112848Y2336228D01*
X2113864Y2335212D01*
X2114626Y2333688D01*
X2114880Y2332164D01*
X2114804Y2332228D01*
X2114804Y2275586D01*
X2114880Y2275601D01*
X2114626Y2274077D01*
X2113864Y2272553D01*
X2112848Y2271537D01*
X2111324Y2270775D01*
X2109800Y2270521D01*
X2109724Y2270505D01*
G37*
G36*
X1636776Y2295905D02*
G01*
X1636699Y2295921D01*
X1635175Y2296175D01*
X1633651Y2296937D01*
X1632635Y2297953D01*
X1631873Y2299477D01*
X1631619Y2301001D01*
X1631695Y2300986D01*
X1631695Y2357628D01*
X1631619Y2357564D01*
X1631873Y2359088D01*
X1632635Y2360612D01*
X1633651Y2361628D01*
X1635175Y2362390D01*
X1636699Y2362644D01*
X1636776Y2362707D01*
X1690623Y2362707D01*
X1690700Y2362644D01*
X1692224Y2362390D01*
X1693748Y2361628D01*
X1694764Y2360612D01*
X1695526Y2359088D01*
X1695780Y2357564D01*
X1695704Y2357628D01*
X1695704Y2300986D01*
X1695780Y2301001D01*
X1695526Y2299477D01*
X1694764Y2297953D01*
X1693748Y2296937D01*
X1692224Y2296175D01*
X1690700Y2295921D01*
X1690623Y2295905D01*
G37*
G36*
X1636776Y2209292D02*
G01*
X1636699Y2209355D01*
X1635175Y2209609D01*
X1633651Y2210371D01*
X1632635Y2211387D01*
X1631873Y2212911D01*
X1631619Y2214435D01*
X1631695Y2214371D01*
X1631695Y2271013D01*
X1631619Y2270998D01*
X1631873Y2272522D01*
X1632635Y2274046D01*
X1633651Y2275062D01*
X1635175Y2275824D01*
X1636699Y2276078D01*
X1636776Y2276094D01*
X1690623Y2276094D01*
X1690700Y2276078D01*
X1692224Y2275824D01*
X1693748Y2275062D01*
X1694764Y2274046D01*
X1695526Y2272522D01*
X1695780Y2270998D01*
X1695704Y2271013D01*
X1695704Y2214371D01*
X1695780Y2214435D01*
X1695526Y2212911D01*
X1694764Y2211387D01*
X1693748Y2210371D01*
X1692224Y2209609D01*
X1690700Y2209355D01*
X1690623Y2209292D01*
G37*
G36*
X2688843Y2416810D02*
G01*
X2688955Y2416845D01*
X2687431Y2417099D01*
X2685907Y2417861D01*
X2684891Y2418877D01*
X2684129Y2420401D01*
X2683875Y2421925D01*
X2683763Y2421889D01*
X2683763Y2671826D01*
X2683875Y2671927D01*
X2684129Y2673451D01*
X2684891Y2674975D01*
X2685907Y2675991D01*
X2687431Y2676753D01*
X2688955Y2677007D01*
X2688843Y2676905D01*
X2829052Y2676905D01*
X2828955Y2677007D01*
X2830479Y2676753D01*
X2832003Y2675991D01*
X2833019Y2674975D01*
X2833781Y2673451D01*
X2834035Y2671927D01*
X2834131Y2671826D01*
X2834131Y2421889D01*
X2834035Y2421925D01*
X2833781Y2420401D01*
X2833019Y2418877D01*
X2832003Y2417861D01*
X2830479Y2417099D01*
X2828955Y2416845D01*
X2829052Y2416810D01*
G37*
G36*
X2488945Y2416810D02*
G01*
X2488956Y2416870D01*
X2487432Y2417124D01*
X2485908Y2417886D01*
X2484892Y2418902D01*
X2484130Y2420426D01*
X2483876Y2421950D01*
X2483865Y2421889D01*
X2483865Y2671826D01*
X2483876Y2671953D01*
X2484130Y2673477D01*
X2484892Y2675001D01*
X2485908Y2676017D01*
X2487432Y2676779D01*
X2488956Y2677032D01*
X2488945Y2676905D01*
X2628900Y2676905D01*
X2628955Y2677032D01*
X2630479Y2676779D01*
X2632003Y2676017D01*
X2633019Y2675001D01*
X2633781Y2673477D01*
X2634035Y2671953D01*
X2633979Y2671826D01*
X2633979Y2421889D01*
X2634035Y2421950D01*
X2633781Y2420426D01*
X2633019Y2418902D01*
X2632003Y2417886D01*
X2630479Y2417124D01*
X2628955Y2416870D01*
X2628900Y2416810D01*
G37*
G36*
X2289047Y2416810D02*
G01*
X2288956Y2416845D01*
X2287432Y2417099D01*
X2285908Y2417861D01*
X2284892Y2418877D01*
X2284130Y2420401D01*
X2283876Y2421925D01*
X2283968Y2421889D01*
X2283968Y2671826D01*
X2283876Y2671927D01*
X2284130Y2673451D01*
X2284892Y2674975D01*
X2285908Y2675991D01*
X2287432Y2676753D01*
X2288956Y2677007D01*
X2289047Y2676905D01*
X2429002Y2676905D01*
X2428956Y2677007D01*
X2430480Y2676753D01*
X2432004Y2675991D01*
X2433020Y2674975D01*
X2433782Y2673451D01*
X2434036Y2671927D01*
X2434081Y2671826D01*
X2434081Y2421889D01*
X2434036Y2421925D01*
X2433782Y2420401D01*
X2433020Y2418877D01*
X2432004Y2417861D01*
X2430480Y2417099D01*
X2428956Y2416845D01*
X2429002Y2416810D01*
G37*
G36*
X2088895Y2416810D02*
G01*
X2088956Y2416921D01*
X2087432Y2417175D01*
X2085908Y2417937D01*
X2084892Y2418953D01*
X2084130Y2420477D01*
X2083876Y2422001D01*
X2083815Y2421889D01*
X2083815Y2672079D01*
X2083876Y2672003D01*
X2084130Y2673527D01*
X2084892Y2675051D01*
X2085908Y2676067D01*
X2087432Y2676829D01*
X2088956Y2677083D01*
X2088895Y2677160D01*
X2228850Y2677160D01*
X2228956Y2677083D01*
X2230480Y2676829D01*
X2232004Y2676067D01*
X2233020Y2675051D01*
X2233782Y2673527D01*
X2234036Y2672003D01*
X2233929Y2672079D01*
X2233929Y2421889D01*
X2234036Y2422001D01*
X2233782Y2420477D01*
X2233020Y2418953D01*
X2232004Y2417937D01*
X2230480Y2417175D01*
X2228956Y2416921D01*
X2228850Y2416810D01*
G37*
G36*
X1888997Y2416810D02*
G01*
X1888957Y2416845D01*
X1887433Y2417099D01*
X1885909Y2417861D01*
X1884893Y2418877D01*
X1884131Y2420401D01*
X1883877Y2421925D01*
X1883918Y2421889D01*
X1883918Y2671826D01*
X1883877Y2671927D01*
X1884131Y2673451D01*
X1884893Y2674975D01*
X1885909Y2675991D01*
X1887433Y2676753D01*
X1888957Y2677007D01*
X1888997Y2676905D01*
X2028952Y2676905D01*
X2028957Y2677007D01*
X2030481Y2676753D01*
X2032005Y2675991D01*
X2033021Y2674975D01*
X2033783Y2673451D01*
X2034037Y2671927D01*
X2034031Y2671826D01*
X2034031Y2421889D01*
X2034037Y2421925D01*
X2033783Y2420401D01*
X2033021Y2418877D01*
X2032005Y2417861D01*
X2030481Y2417099D01*
X2028957Y2416845D01*
X2028952Y2416810D01*
G37*
G36*
X1688957Y2416769D02*
G01*
X1687433Y2417023D01*
X1685909Y2417785D01*
X1684893Y2418801D01*
X1684131Y2420325D01*
X1683877Y2421849D01*
X1683765Y2421889D01*
X1683765Y2671826D01*
X1683877Y2671851D01*
X1684131Y2673375D01*
X1684893Y2674899D01*
X1685909Y2675915D01*
X1687433Y2676677D01*
X1688957Y2676931D01*
X1688845Y2676905D01*
X1829054Y2676905D01*
X1828957Y2676931D01*
X1830481Y2676677D01*
X1832005Y2675915D01*
X1833021Y2674899D01*
X1833783Y2673375D01*
X1834037Y2671851D01*
X1834134Y2671826D01*
X1834134Y2421889D01*
X1834037Y2421849D01*
X1833783Y2420325D01*
X1833021Y2418801D01*
X1832005Y2417785D01*
X1830481Y2417023D01*
X1828957Y2416769D01*
X1829054Y2416810D01*
X1688845Y2416810D01*
G37*
G36*
X1488947Y2416810D02*
G01*
X1488958Y2416896D01*
X1487434Y2417150D01*
X1485910Y2417912D01*
X1484894Y2418928D01*
X1484132Y2420452D01*
X1483878Y2421976D01*
X1483868Y2421889D01*
X1483868Y2672079D01*
X1483878Y2671978D01*
X1484132Y2673502D01*
X1484894Y2675026D01*
X1485910Y2676042D01*
X1487434Y2676804D01*
X1488958Y2677058D01*
X1488947Y2677160D01*
X1628902Y2677160D01*
X1628957Y2677058D01*
X1630481Y2676804D01*
X1632005Y2676042D01*
X1633021Y2675026D01*
X1633783Y2673502D01*
X1634037Y2671978D01*
X1633981Y2672079D01*
X1633981Y2421889D01*
X1634037Y2421976D01*
X1633783Y2420452D01*
X1633021Y2418928D01*
X1632005Y2417912D01*
X1630481Y2417150D01*
X1628957Y2416896D01*
X1628902Y2416810D01*
G37*
G36*
X1288958Y2417048D02*
G01*
X1287434Y2417302D01*
X1285910Y2418064D01*
X1284894Y2419080D01*
X1284132Y2420604D01*
X1283878Y2422128D01*
X1283970Y2422144D01*
X1283970Y2672079D01*
X1283878Y2672130D01*
X1284132Y2673654D01*
X1284894Y2675178D01*
X1285910Y2676194D01*
X1287434Y2676956D01*
X1288958Y2677210D01*
X1289050Y2677160D01*
X1429004Y2677160D01*
X1428958Y2677210D01*
X1430482Y2676956D01*
X1432006Y2676194D01*
X1433022Y2675178D01*
X1433784Y2673654D01*
X1434038Y2672130D01*
X1434084Y2672079D01*
X1434084Y2422144D01*
X1434038Y2422128D01*
X1433784Y2420604D01*
X1433022Y2419080D01*
X1432006Y2418064D01*
X1430482Y2417302D01*
X1428958Y2417063D01*
X1289050Y2417063D01*
G37*
G36*
X1143762Y2727197D02*
G01*
X1143868Y2727251D01*
X1142344Y2727505D01*
X1140820Y2728267D01*
X1139804Y2729283D01*
X1139042Y2730807D01*
X1138788Y2732331D01*
X1138681Y2732278D01*
X1138681Y2872231D01*
X1138788Y2872331D01*
X1139042Y2873855D01*
X1139804Y2875379D01*
X1140820Y2876395D01*
X1142344Y2877157D01*
X1143868Y2877411D01*
X1143762Y2877312D01*
X1313942Y2877312D01*
X1313870Y2877411D01*
X1315394Y2877157D01*
X1316918Y2876395D01*
X1317934Y2875379D01*
X1318696Y2873855D01*
X1318950Y2872331D01*
X1319021Y2872231D01*
X1319021Y2732278D01*
X1318950Y2732331D01*
X1318696Y2730807D01*
X1317934Y2729283D01*
X1316918Y2728267D01*
X1315394Y2727505D01*
X1313870Y2727251D01*
X1313942Y2727197D01*
G37*
G36*
X1143944Y2927250D02*
G01*
X1142420Y2927504D01*
X1140896Y2928266D01*
X1139880Y2929282D01*
X1139118Y2930806D01*
X1138864Y2932330D01*
X1138936Y2932429D01*
X1138936Y3072384D01*
X1138864Y3072330D01*
X1139118Y3073854D01*
X1139880Y3075378D01*
X1140896Y3076394D01*
X1142420Y3077156D01*
X1143944Y3077410D01*
X1144015Y3077463D01*
X1313942Y3077463D01*
X1313947Y3077410D01*
X1315471Y3077156D01*
X1316995Y3076394D01*
X1318011Y3075378D01*
X1318773Y3073854D01*
X1319021Y3072384D01*
X1319021Y2932429D01*
X1319027Y2932330D01*
X1318773Y2930806D01*
X1318011Y2929282D01*
X1316995Y2928266D01*
X1315471Y2927504D01*
X1313947Y2927250D01*
X1313942Y2927350D01*
X1144015Y2927350D01*
G37*
G36*
X1143944Y3127174D02*
G01*
X1142420Y3127428D01*
X1140896Y3128190D01*
X1139880Y3129206D01*
X1139118Y3130730D01*
X1138864Y3132254D01*
X1138936Y3132328D01*
X1138936Y3272281D01*
X1138864Y3272254D01*
X1139118Y3273778D01*
X1139880Y3275302D01*
X1140896Y3276318D01*
X1142420Y3277080D01*
X1143944Y3277334D01*
X1144015Y3277362D01*
X1313942Y3277362D01*
X1313947Y3277334D01*
X1315471Y3277080D01*
X1316995Y3276318D01*
X1318011Y3275302D01*
X1318773Y3273778D01*
X1319027Y3272254D01*
X1319021Y3272281D01*
X1319021Y3132328D01*
X1319027Y3132254D01*
X1318773Y3130730D01*
X1318011Y3129206D01*
X1316995Y3128190D01*
X1315471Y3127428D01*
X1313947Y3127174D01*
X1313942Y3127247D01*
X1144015Y3127247D01*
G37*
G36*
X1144015Y3327145D02*
G01*
X1143944Y3327250D01*
X1142420Y3327504D01*
X1140896Y3328266D01*
X1139880Y3329282D01*
X1139118Y3330806D01*
X1138864Y3332330D01*
X1138936Y3332226D01*
X1138936Y3472434D01*
X1138864Y3472329D01*
X1139118Y3473853D01*
X1139880Y3475377D01*
X1140896Y3476393D01*
X1142420Y3477155D01*
X1143944Y3477409D01*
X1144015Y3477513D01*
X1313942Y3477513D01*
X1313947Y3477409D01*
X1315471Y3477155D01*
X1316995Y3476393D01*
X1318011Y3475377D01*
X1318773Y3473853D01*
X1319021Y3472434D01*
X1319021Y3332226D01*
X1319027Y3332330D01*
X1318773Y3330806D01*
X1318011Y3329282D01*
X1316995Y3328266D01*
X1315471Y3327504D01*
X1313947Y3327250D01*
X1313942Y3327145D01*
G37*
G36*
X1144015Y3527044D02*
G01*
X1143995Y3527122D01*
X1142471Y3527376D01*
X1140947Y3528138D01*
X1139931Y3529154D01*
X1139169Y3530678D01*
X1138915Y3532202D01*
X1138936Y3532123D01*
X1138936Y3672078D01*
X1138915Y3672202D01*
X1139169Y3673726D01*
X1139931Y3675250D01*
X1140947Y3676266D01*
X1142471Y3677028D01*
X1143995Y3677282D01*
X1144015Y3677157D01*
X1313942Y3677157D01*
X1313997Y3677282D01*
X1315521Y3677028D01*
X1317045Y3676266D01*
X1318061Y3675250D01*
X1318823Y3673726D01*
X1319077Y3672202D01*
X1319021Y3672078D01*
X1319021Y3532123D01*
X1319077Y3532202D01*
X1318823Y3530678D01*
X1318061Y3529154D01*
X1317045Y3528138D01*
X1315521Y3527376D01*
X1313997Y3527122D01*
X1313942Y3527044D01*
G37*
G36*
X1143843Y3726919D02*
G01*
X1142319Y3727173D01*
X1140795Y3727935D01*
X1139779Y3728951D01*
X1139017Y3730475D01*
X1138763Y3731999D01*
X1138681Y3732021D01*
X1138681Y3871976D01*
X1138763Y3871998D01*
X1139017Y3873522D01*
X1139779Y3875046D01*
X1140795Y3876062D01*
X1142319Y3876824D01*
X1143843Y3877078D01*
X1143762Y3877055D01*
X1313942Y3877055D01*
X1313845Y3877078D01*
X1315369Y3876824D01*
X1316893Y3876062D01*
X1317909Y3875046D01*
X1318671Y3873522D01*
X1318925Y3871998D01*
X1319021Y3871976D01*
X1319021Y3732021D01*
X1318925Y3731999D01*
X1318671Y3730475D01*
X1317909Y3728951D01*
X1316893Y3727935D01*
X1315369Y3727173D01*
X1313845Y3726919D01*
X1313942Y3726942D01*
X1143762Y3726942D01*
G37*
G36*
X1288958Y3926992D02*
G01*
X1287434Y3927246D01*
X1285910Y3928008D01*
X1284894Y3929024D01*
X1284132Y3930548D01*
X1283878Y3932072D01*
X1283970Y3932173D01*
X1283970Y4182110D01*
X1283878Y4182074D01*
X1284132Y4183598D01*
X1284894Y4185122D01*
X1285910Y4186138D01*
X1287434Y4186900D01*
X1288958Y4187154D01*
X1289050Y4187189D01*
X1429004Y4187189D01*
X1428958Y4187154D01*
X1430482Y4186900D01*
X1432006Y4186138D01*
X1433022Y4185122D01*
X1433784Y4183598D01*
X1434038Y4182074D01*
X1434084Y4182110D01*
X1434084Y3932173D01*
X1434038Y3932072D01*
X1433784Y3930548D01*
X1433022Y3929024D01*
X1432006Y3928008D01*
X1430482Y3927246D01*
X1428958Y3926992D01*
X1429004Y3927094D01*
X1289050Y3927094D01*
G37*
G36*
X1488958Y3927068D02*
G01*
X1487434Y3927322D01*
X1485910Y3928084D01*
X1484894Y3929100D01*
X1484132Y3930624D01*
X1483878Y3932148D01*
X1483868Y3932173D01*
X1483868Y4182110D01*
X1483878Y4182150D01*
X1484132Y4183674D01*
X1484894Y4185198D01*
X1485910Y4186214D01*
X1487434Y4186976D01*
X1488958Y4187230D01*
X1488947Y4187189D01*
X1628902Y4187189D01*
X1628957Y4187230D01*
X1630481Y4186976D01*
X1632005Y4186214D01*
X1633021Y4185198D01*
X1633783Y4183674D01*
X1634037Y4182150D01*
X1633981Y4182110D01*
X1633981Y3932173D01*
X1634037Y3932148D01*
X1633783Y3930624D01*
X1633021Y3929100D01*
X1632005Y3928084D01*
X1630481Y3927322D01*
X1628957Y3927068D01*
X1628902Y3927094D01*
X1488947Y3927094D01*
G37*
G36*
X1688957Y3927068D02*
G01*
X1687433Y3927322D01*
X1685909Y3928084D01*
X1684893Y3929100D01*
X1684131Y3930624D01*
X1683877Y3932148D01*
X1683765Y3932173D01*
X1683765Y4182110D01*
X1683877Y4182150D01*
X1684131Y4183674D01*
X1684893Y4185198D01*
X1685909Y4186214D01*
X1687433Y4186976D01*
X1688957Y4187230D01*
X1688845Y4187189D01*
X1829054Y4187189D01*
X1828957Y4187230D01*
X1830481Y4186976D01*
X1832005Y4186214D01*
X1833021Y4185198D01*
X1833783Y4183674D01*
X1834037Y4182150D01*
X1834134Y4182110D01*
X1834134Y3932173D01*
X1834037Y3932148D01*
X1833783Y3930624D01*
X1833021Y3929100D01*
X1832005Y3928084D01*
X1830481Y3927322D01*
X1828957Y3927068D01*
X1829054Y3927094D01*
X1688845Y3927094D01*
G37*
G36*
X1888957Y3927068D02*
G01*
X1887433Y3927322D01*
X1885909Y3928084D01*
X1884893Y3929100D01*
X1884131Y3930624D01*
X1883877Y3932148D01*
X1883918Y3932173D01*
X1883918Y4182110D01*
X1883877Y4182150D01*
X1884131Y4183674D01*
X1884893Y4185198D01*
X1885909Y4186214D01*
X1887433Y4186976D01*
X1888957Y4187230D01*
X1888997Y4187189D01*
X2028952Y4187189D01*
X2028957Y4187230D01*
X2030481Y4186976D01*
X2032005Y4186214D01*
X2033021Y4185198D01*
X2033783Y4183674D01*
X2034037Y4182150D01*
X2034031Y4182110D01*
X2034031Y3932173D01*
X2034037Y3932148D01*
X2033783Y3930624D01*
X2033021Y3929100D01*
X2032005Y3928084D01*
X2030481Y3927322D01*
X2028957Y3927068D01*
X2028952Y3927094D01*
X1888997Y3927094D01*
G37*
G36*
X2088956Y3927068D02*
G01*
X2087432Y3927322D01*
X2085908Y3928084D01*
X2084892Y3929100D01*
X2084130Y3930624D01*
X2083876Y3932148D01*
X2083815Y3932173D01*
X2083815Y4182110D01*
X2083876Y4182150D01*
X2084130Y4183674D01*
X2084892Y4185198D01*
X2085908Y4186214D01*
X2087432Y4186976D01*
X2088956Y4187230D01*
X2088895Y4187189D01*
X2228850Y4187189D01*
X2228956Y4187230D01*
X2230480Y4186976D01*
X2232004Y4186214D01*
X2233020Y4185198D01*
X2233782Y4183674D01*
X2234036Y4182150D01*
X2233929Y4182110D01*
X2233929Y3932173D01*
X2234036Y3932148D01*
X2233782Y3930624D01*
X2233020Y3929100D01*
X2232004Y3928084D01*
X2230480Y3927322D01*
X2228956Y3927068D01*
X2228850Y3927094D01*
X2088895Y3927094D01*
G37*
G36*
X2288956Y3927068D02*
G01*
X2287432Y3927322D01*
X2285908Y3928084D01*
X2284892Y3929100D01*
X2284130Y3930624D01*
X2283876Y3932148D01*
X2283968Y3932173D01*
X2283968Y4182110D01*
X2283876Y4182150D01*
X2284130Y4183674D01*
X2284892Y4185198D01*
X2285908Y4186214D01*
X2287432Y4186976D01*
X2288956Y4187230D01*
X2289047Y4187189D01*
X2429002Y4187189D01*
X2428956Y4187230D01*
X2430480Y4186976D01*
X2432004Y4186214D01*
X2433020Y4185198D01*
X2433782Y4183674D01*
X2434036Y4182150D01*
X2434081Y4182110D01*
X2434081Y3932173D01*
X2434036Y3932148D01*
X2433782Y3930624D01*
X2433020Y3929100D01*
X2432004Y3928084D01*
X2430480Y3927322D01*
X2428956Y3927068D01*
X2429002Y3927094D01*
X2289047Y3927094D01*
G37*
G36*
X2488956Y3927068D02*
G01*
X2487432Y3927322D01*
X2485908Y3928084D01*
X2484892Y3929100D01*
X2484130Y3930624D01*
X2483876Y3932148D01*
X2483865Y3932173D01*
X2483865Y4182110D01*
X2483876Y4182150D01*
X2484130Y4183674D01*
X2484892Y4185198D01*
X2485908Y4186214D01*
X2487432Y4186976D01*
X2488956Y4187230D01*
X2488945Y4187189D01*
X2628900Y4187189D01*
X2628955Y4187230D01*
X2630479Y4186976D01*
X2632003Y4186214D01*
X2633019Y4185198D01*
X2633781Y4183674D01*
X2634035Y4182150D01*
X2633979Y4182110D01*
X2633979Y3932173D01*
X2634035Y3932148D01*
X2633781Y3930624D01*
X2633019Y3929100D01*
X2632003Y3928084D01*
X2630479Y3927322D01*
X2628955Y3927068D01*
X2628900Y3927094D01*
X2488945Y3927094D01*
G37*
G36*
X2688955Y3927068D02*
G01*
X2687431Y3927322D01*
X2685907Y3928084D01*
X2684891Y3929100D01*
X2684129Y3930624D01*
X2683875Y3932148D01*
X2683763Y3932173D01*
X2683763Y4182110D01*
X2683875Y4182150D01*
X2684129Y4183674D01*
X2684891Y4185198D01*
X2685907Y4186214D01*
X2687431Y4186976D01*
X2688955Y4187230D01*
X2688843Y4187189D01*
X2829052Y4187189D01*
X2828955Y4187230D01*
X2830479Y4186976D01*
X2832003Y4186214D01*
X2833019Y4185198D01*
X2833781Y4183674D01*
X2834035Y4182150D01*
X2834131Y4182110D01*
X2834131Y3932173D01*
X2834035Y3932148D01*
X2833781Y3930624D01*
X2833019Y3929100D01*
X2832003Y3928084D01*
X2830479Y3927322D01*
X2828955Y3927068D01*
X2829052Y3927094D01*
X2688843Y3927094D01*
G37*
G36*
X2138679Y4291020D02*
G01*
X2137156Y4291274D01*
X2135631Y4292036D01*
X2134615Y4293052D01*
X2133854Y4294576D01*
X2133600Y4296100D01*
X2133600Y4556099D01*
X2133854Y4557623D01*
X2134615Y4559147D01*
X2135631Y4560163D01*
X2137156Y4560925D01*
X2138679Y4561179D01*
X2138679Y4561078D01*
X2280920Y4561078D01*
X2280920Y4561179D01*
X2282443Y4560925D01*
X2283968Y4560163D01*
X2284984Y4559147D01*
X2285745Y4557623D01*
X2286000Y4556099D01*
X2286000Y4296100D01*
X2285745Y4294576D01*
X2284984Y4293052D01*
X2283968Y4292036D01*
X2282443Y4291274D01*
X2280920Y4291020D01*
X2280920Y4291076D01*
X2138679Y4291076D01*
G37*
G36*
X2392679Y4291020D02*
G01*
X2391156Y4291274D01*
X2389631Y4292036D01*
X2388615Y4293052D01*
X2387854Y4294576D01*
X2387600Y4296100D01*
X2387600Y4556099D01*
X2387854Y4557623D01*
X2388615Y4559147D01*
X2389631Y4560163D01*
X2391156Y4560925D01*
X2392679Y4561179D01*
X2392679Y4561078D01*
X2534920Y4561078D01*
X2534920Y4561179D01*
X2536443Y4560925D01*
X2537968Y4560163D01*
X2538984Y4559147D01*
X2539745Y4557623D01*
X2540000Y4556099D01*
X2540000Y4296100D01*
X2539745Y4294576D01*
X2538984Y4293052D01*
X2537968Y4292036D01*
X2536443Y4291274D01*
X2534920Y4291020D01*
X2534920Y4291076D01*
X2392679Y4291076D01*
G37*
G36*
X2646679Y4291020D02*
G01*
X2645156Y4291274D01*
X2643631Y4292036D01*
X2642615Y4293052D01*
X2641854Y4294576D01*
X2641600Y4296100D01*
X2641600Y4556099D01*
X2641854Y4557623D01*
X2642615Y4559147D01*
X2643631Y4560163D01*
X2645156Y4560925D01*
X2646679Y4561179D01*
X2646679Y4561078D01*
X2788920Y4561078D01*
X2788920Y4561179D01*
X2790443Y4560925D01*
X2791968Y4560163D01*
X2792984Y4559147D01*
X2793745Y4557623D01*
X2794000Y4556099D01*
X2794000Y4296100D01*
X2793745Y4294576D01*
X2792984Y4293052D01*
X2791968Y4292036D01*
X2790443Y4291274D01*
X2788920Y4291020D01*
X2788920Y4291076D01*
X2646679Y4291076D01*
G37*
G36*
X2138679Y5167020D02*
G01*
X2137156Y5167274D01*
X2135631Y5168036D01*
X2134615Y5169052D01*
X2133854Y5170576D01*
X2133600Y5172100D01*
X2133600Y5432099D01*
X2133854Y5433623D01*
X2134615Y5435147D01*
X2135631Y5436163D01*
X2137156Y5436925D01*
X2138679Y5437179D01*
X2138679Y5437123D01*
X2280920Y5437123D01*
X2280920Y5437179D01*
X2282443Y5436925D01*
X2283968Y5436163D01*
X2284984Y5435147D01*
X2285745Y5433623D01*
X2286000Y5432099D01*
X2286000Y5172100D01*
X2285745Y5170576D01*
X2284984Y5169052D01*
X2283968Y5168036D01*
X2282443Y5167274D01*
X2280920Y5167020D01*
X2280920Y5167121D01*
X2138679Y5167121D01*
G37*
G36*
X2392679Y5167020D02*
G01*
X2391156Y5167274D01*
X2389631Y5168036D01*
X2388615Y5169052D01*
X2387854Y5170576D01*
X2387600Y5172100D01*
X2387600Y5432099D01*
X2387854Y5433623D01*
X2388615Y5435147D01*
X2389631Y5436163D01*
X2391156Y5436925D01*
X2392679Y5437179D01*
X2392679Y5437123D01*
X2534920Y5437123D01*
X2534920Y5437179D01*
X2536443Y5436925D01*
X2537968Y5436163D01*
X2538984Y5435147D01*
X2539745Y5433623D01*
X2540000Y5432099D01*
X2540000Y5172100D01*
X2539745Y5170576D01*
X2538984Y5169052D01*
X2537968Y5168036D01*
X2536443Y5167274D01*
X2534920Y5167020D01*
X2534920Y5167121D01*
X2392679Y5167121D01*
G37*
G36*
X2646679Y5167020D02*
G01*
X2645156Y5167274D01*
X2643631Y5168036D01*
X2642615Y5169052D01*
X2641854Y5170576D01*
X2641600Y5172100D01*
X2641600Y5432099D01*
X2641854Y5433623D01*
X2642615Y5435147D01*
X2643631Y5436163D01*
X2645156Y5436925D01*
X2646679Y5437179D01*
X2646679Y5437123D01*
X2788920Y5437123D01*
X2788920Y5437179D01*
X2790443Y5436925D01*
X2791968Y5436163D01*
X2792984Y5435147D01*
X2793745Y5433623D01*
X2794000Y5432099D01*
X2794000Y5172100D01*
X2793745Y5170576D01*
X2792984Y5169052D01*
X2791968Y5168036D01*
X2790443Y5167274D01*
X2788920Y5167020D01*
X2788920Y5167121D01*
X2646679Y5167121D01*
G37*
D46*
G01*
X2603500Y1993900D03*
G01*
X1574800Y4673600D03*
G01*
X1587500Y1993900D03*
G01*
X1066800Y4673600D03*
M02*
